<svg width="20" height="20" viewBox="0 0 20 20" fill="none" xmlns="http://www.w3.org/2000/svg">
<path d="M2 16H18C19.1045 16 20 16.8955 20 18C20 19.1045 19.1045 20 18 20H2C0.895467 20 0 19.1045 0 18C0 16.8955 0.895467 16 2 16Z" fill="white"/>
<path d="M18 12H2C0.895467 12 0 11.1045 0 10C0 8.89547 0.895467 8 2 8H18C19.1045 8 20 8.89547 20 10C20 11.1045 19.1045 12 18 12Z" fill="white"/>
<path d="M18 4H2C0.895467 4 0 3.10453 0 2C0 0.895466 0.895467 -2.08616e-07 2 -2.08616e-07H18C19.1045 -2.08616e-07 20 0.895466 20 2C20 3.10453 19.1045 4 18 4Z" fill="white"/>
</svg>
